<mxfile host="app.diagrams.net" modified="2021-03-31T03:14:13.864Z" agent="5.0 (Windows NT 10.0; Win64; x64) AppleWebKit/537.36 (KHTML, like Gecko) Chrome/89.0.4389.90 Safari/537.36" etag="28jtha0oQwKtWvuh4Wmi" version="14.5.1" type="github">
  <diagram id="tsUUclpd-2ritDMvlrhd" name="Page-1">
    <mxGraphModel dx="384" dy="488" grid="1" gridSize="10" guides="1" tooltips="1" connect="1" arrows="1" fold="1" page="1" pageScale="1" pageWidth="827" pageHeight="1169" math="0" shadow="0">
      <root>
        <mxCell id="0" />
        <mxCell id="1" parent="0" />
        <mxCell id="g0B-7U45llneTHeVoLoR-5" style="edgeStyle=orthogonalEdgeStyle;rounded=0;orthogonalLoop=1;jettySize=auto;html=1;exitX=1;exitY=0.5;exitDx=0;exitDy=0;entryX=0;entryY=0.5;entryDx=0;entryDy=0;" edge="1" parent="1" source="g0B-7U45llneTHeVoLoR-1" target="g0B-7U45llneTHeVoLoR-2">
          <mxGeometry relative="1" as="geometry" />
        </mxCell>
        <mxCell id="g0B-7U45llneTHeVoLoR-6" style="edgeStyle=orthogonalEdgeStyle;rounded=0;orthogonalLoop=1;jettySize=auto;html=1;exitX=1;exitY=0.5;exitDx=0;exitDy=0;entryX=0;entryY=0.5;entryDx=0;entryDy=0;" edge="1" parent="1" source="g0B-7U45llneTHeVoLoR-1" target="g0B-7U45llneTHeVoLoR-3">
          <mxGeometry relative="1" as="geometry" />
        </mxCell>
        <mxCell id="g0B-7U45llneTHeVoLoR-1" value="RL algorithms" style="rounded=1;whiteSpace=wrap;html=1;fillColor=#f5f5f5;strokeColor=#666666;fontColor=#333333;" vertex="1" parent="1">
          <mxGeometry x="40" y="230" width="80" height="40" as="geometry" />
        </mxCell>
        <mxCell id="g0B-7U45llneTHeVoLoR-11" style="edgeStyle=orthogonalEdgeStyle;rounded=0;orthogonalLoop=1;jettySize=auto;html=1;exitX=1;exitY=0.5;exitDx=0;exitDy=0;entryX=0;entryY=0.5;entryDx=0;entryDy=0;" edge="1" parent="1" source="g0B-7U45llneTHeVoLoR-2" target="g0B-7U45llneTHeVoLoR-7">
          <mxGeometry relative="1" as="geometry" />
        </mxCell>
        <mxCell id="g0B-7U45llneTHeVoLoR-12" style="edgeStyle=orthogonalEdgeStyle;rounded=0;orthogonalLoop=1;jettySize=auto;html=1;exitX=1;exitY=0.5;exitDx=0;exitDy=0;entryX=0;entryY=0.5;entryDx=0;entryDy=0;" edge="1" parent="1" source="g0B-7U45llneTHeVoLoR-2" target="g0B-7U45llneTHeVoLoR-8">
          <mxGeometry relative="1" as="geometry" />
        </mxCell>
        <mxCell id="g0B-7U45llneTHeVoLoR-13" style="edgeStyle=orthogonalEdgeStyle;rounded=0;orthogonalLoop=1;jettySize=auto;html=1;exitX=1;exitY=0.5;exitDx=0;exitDy=0;entryX=0;entryY=0.5;entryDx=0;entryDy=0;" edge="1" parent="1" source="g0B-7U45llneTHeVoLoR-2" target="g0B-7U45llneTHeVoLoR-10">
          <mxGeometry relative="1" as="geometry" />
        </mxCell>
        <mxCell id="g0B-7U45llneTHeVoLoR-2" value="Model-free RL" style="rounded=1;whiteSpace=wrap;html=1;fillColor=#f5f5f5;strokeColor=#666666;fontColor=#333333;" vertex="1" parent="1">
          <mxGeometry x="160" y="160" width="80" height="40" as="geometry" />
        </mxCell>
        <mxCell id="g0B-7U45llneTHeVoLoR-3" value="Model-based RL" style="rounded=1;whiteSpace=wrap;html=1;fillColor=#f5f5f5;strokeColor=#666666;fontColor=#333333;" vertex="1" parent="1">
          <mxGeometry x="160" y="330" width="100" height="40" as="geometry" />
        </mxCell>
        <mxCell id="g0B-7U45llneTHeVoLoR-19" style="edgeStyle=orthogonalEdgeStyle;rounded=0;orthogonalLoop=1;jettySize=auto;html=1;exitX=1;exitY=0.5;exitDx=0;exitDy=0;entryX=0;entryY=0.5;entryDx=0;entryDy=0;" edge="1" parent="1" source="g0B-7U45llneTHeVoLoR-7" target="g0B-7U45llneTHeVoLoR-14">
          <mxGeometry relative="1" as="geometry" />
        </mxCell>
        <mxCell id="g0B-7U45llneTHeVoLoR-20" style="edgeStyle=orthogonalEdgeStyle;rounded=0;orthogonalLoop=1;jettySize=auto;html=1;exitX=1;exitY=0.5;exitDx=0;exitDy=0;entryX=0;entryY=0.5;entryDx=0;entryDy=0;" edge="1" parent="1" source="g0B-7U45llneTHeVoLoR-7" target="g0B-7U45llneTHeVoLoR-15">
          <mxGeometry relative="1" as="geometry" />
        </mxCell>
        <mxCell id="g0B-7U45llneTHeVoLoR-21" style="edgeStyle=orthogonalEdgeStyle;rounded=0;orthogonalLoop=1;jettySize=auto;html=1;exitX=1;exitY=0.5;exitDx=0;exitDy=0;entryX=0;entryY=0.5;entryDx=0;entryDy=0;" edge="1" parent="1" source="g0B-7U45llneTHeVoLoR-7" target="g0B-7U45llneTHeVoLoR-16">
          <mxGeometry relative="1" as="geometry" />
        </mxCell>
        <mxCell id="g0B-7U45llneTHeVoLoR-7" value="Critic-only" style="rounded=1;whiteSpace=wrap;html=1;fillColor=#f8cecc;strokeColor=#b85450;" vertex="1" parent="1">
          <mxGeometry x="280" y="90" width="80" height="40" as="geometry" />
        </mxCell>
        <mxCell id="g0B-7U45llneTHeVoLoR-25" style="edgeStyle=orthogonalEdgeStyle;rounded=0;orthogonalLoop=1;jettySize=auto;html=1;exitX=1;exitY=0.5;exitDx=0;exitDy=0;entryX=0;entryY=0.5;entryDx=0;entryDy=0;" edge="1" parent="1" source="g0B-7U45llneTHeVoLoR-8" target="g0B-7U45llneTHeVoLoR-23">
          <mxGeometry relative="1" as="geometry" />
        </mxCell>
        <mxCell id="g0B-7U45llneTHeVoLoR-26" style="edgeStyle=orthogonalEdgeStyle;rounded=0;orthogonalLoop=1;jettySize=auto;html=1;exitX=1;exitY=0.5;exitDx=0;exitDy=0;entryX=0;entryY=0.5;entryDx=0;entryDy=0;" edge="1" parent="1" source="g0B-7U45llneTHeVoLoR-8" target="g0B-7U45llneTHeVoLoR-24">
          <mxGeometry relative="1" as="geometry" />
        </mxCell>
        <mxCell id="g0B-7U45llneTHeVoLoR-8" value="Actor-only" style="rounded=1;whiteSpace=wrap;html=1;fillColor=#dae8fc;strokeColor=#6c8ebf;" vertex="1" parent="1">
          <mxGeometry x="280" y="180" width="80" height="40" as="geometry" />
        </mxCell>
        <mxCell id="g0B-7U45llneTHeVoLoR-30" style="edgeStyle=orthogonalEdgeStyle;rounded=0;orthogonalLoop=1;jettySize=auto;html=1;exitX=1;exitY=0.5;exitDx=0;exitDy=0;entryX=0;entryY=0.5;entryDx=0;entryDy=0;" edge="1" parent="1" source="g0B-7U45llneTHeVoLoR-10" target="g0B-7U45llneTHeVoLoR-27">
          <mxGeometry relative="1" as="geometry" />
        </mxCell>
        <mxCell id="g0B-7U45llneTHeVoLoR-31" style="edgeStyle=orthogonalEdgeStyle;rounded=0;orthogonalLoop=1;jettySize=auto;html=1;exitX=1;exitY=0.5;exitDx=0;exitDy=0;entryX=0;entryY=0.5;entryDx=0;entryDy=0;" edge="1" parent="1" source="g0B-7U45llneTHeVoLoR-10" target="g0B-7U45llneTHeVoLoR-28">
          <mxGeometry relative="1" as="geometry" />
        </mxCell>
        <mxCell id="g0B-7U45llneTHeVoLoR-32" style="edgeStyle=orthogonalEdgeStyle;rounded=0;orthogonalLoop=1;jettySize=auto;html=1;exitX=1;exitY=0.5;exitDx=0;exitDy=0;entryX=0;entryY=0.5;entryDx=0;entryDy=0;" edge="1" parent="1" source="g0B-7U45llneTHeVoLoR-10" target="g0B-7U45llneTHeVoLoR-29">
          <mxGeometry relative="1" as="geometry" />
        </mxCell>
        <mxCell id="g0B-7U45llneTHeVoLoR-10" value="Actor-critic" style="rounded=1;whiteSpace=wrap;html=1;fillColor=#d5e8d4;strokeColor=#82b366;" vertex="1" parent="1">
          <mxGeometry x="280" y="270" width="80" height="40" as="geometry" />
        </mxCell>
        <mxCell id="g0B-7U45llneTHeVoLoR-14" value="Q-learning" style="rounded=1;whiteSpace=wrap;html=1;fillColor=#f8cecc;strokeColor=#b85450;" vertex="1" parent="1">
          <mxGeometry x="414" y="40" width="80" height="30" as="geometry" />
        </mxCell>
        <mxCell id="g0B-7U45llneTHeVoLoR-15" value="SARSA" style="rounded=1;whiteSpace=wrap;html=1;fillColor=#f8cecc;strokeColor=#b85450;" vertex="1" parent="1">
          <mxGeometry x="414" y="80" width="80" height="30" as="geometry" />
        </mxCell>
        <mxCell id="g0B-7U45llneTHeVoLoR-16" value="Distributional RL" style="rounded=1;whiteSpace=wrap;html=1;fillColor=#f8cecc;strokeColor=#b85450;" vertex="1" parent="1">
          <mxGeometry x="414" y="120" width="80" height="30" as="geometry" />
        </mxCell>
        <mxCell id="g0B-7U45llneTHeVoLoR-23" value="Policy Gradient" style="rounded=1;whiteSpace=wrap;html=1;fillColor=#dae8fc;strokeColor=#6c8ebf;" vertex="1" parent="1">
          <mxGeometry x="414" y="160" width="80" height="30" as="geometry" />
        </mxCell>
        <mxCell id="g0B-7U45llneTHeVoLoR-24" value="Reinforce" style="rounded=1;whiteSpace=wrap;html=1;fillColor=#dae8fc;strokeColor=#6c8ebf;" vertex="1" parent="1">
          <mxGeometry x="414" y="200" width="80" height="30" as="geometry" />
        </mxCell>
        <mxCell id="g0B-7U45llneTHeVoLoR-27" value="DDPG" style="rounded=1;whiteSpace=wrap;html=1;fillColor=#d5e8d4;strokeColor=#82b366;" vertex="1" parent="1">
          <mxGeometry x="414" y="240" width="80" height="30" as="geometry" />
        </mxCell>
        <mxCell id="g0B-7U45llneTHeVoLoR-28" value="TRPO" style="rounded=1;whiteSpace=wrap;html=1;fillColor=#d5e8d4;strokeColor=#82b366;" vertex="1" parent="1">
          <mxGeometry x="414" y="280" width="80" height="30" as="geometry" />
        </mxCell>
        <mxCell id="g0B-7U45llneTHeVoLoR-29" value="A3C" style="rounded=1;whiteSpace=wrap;html=1;fillColor=#d5e8d4;strokeColor=#82b366;" vertex="1" parent="1">
          <mxGeometry x="414" y="320" width="80" height="30" as="geometry" />
        </mxCell>
      </root>
    </mxGraphModel>
  </diagram>
</mxfile>
